<svg width="163" height="160" viewBox="0 0 163 160" fill="none" xmlns="http://www.w3.org/2000/svg">
<path d="M39.8945 79.7188L72.5991 88.3382L70.7278 94.7855L39.8945 79.7188Z" fill="#0CBC8B"/>
<path d="M109.719 46.1797L70.8336 94.7234L67.4019 89.0531L109.719 46.1797Z" fill="#0CBC8B"/>
<path d="M121.134 41.1802C99.4256 18.4998 64.1491 17.0346 41.4687 38.7434C18.7884 60.4523 18.0008 96.4368 39.7097 119.117" stroke="#1366F2" stroke-width="8"/>
<path d="M121.078 40.886C142.787 63.5663 142.708 98.8732 120.027 120.582" stroke="#1366F2" stroke-width="8"/>
<rect x="85.7109" y="25.2109" width="3.47429" height="10.0725" transform="rotate(11.6139 85.7109 25.2109)" fill="#1366F2"/>
<rect x="55.9922" y="30.5039" width="3.47429" height="10.0725" transform="rotate(-21.5241 55.9922 30.5039)" fill="#1366F2"/>
<rect x="33.207" y="51.3008" width="3.47429" height="10.0725" transform="rotate(-47.3594 33.207 51.3008)" fill="#1366F2"/>
<rect x="25.3125" y="87.2266" width="3.47429" height="10.0725" transform="rotate(-90.9612 25.3125 87.2266)" fill="#1366F2"/>
<rect x="111.152" y="34.8789" width="3.47429" height="10.0725" transform="rotate(26.5201 111.152 34.8789)" fill="#1366F2"/>
<rect x="129.262" y="55.9922" width="3.47429" height="10.0725" transform="rotate(48.5118 129.262 55.9922)" fill="#1366F2"/>
<rect x="135.422" y="86.0898" width="3.47429" height="10.0725" transform="rotate(86.2306 135.422 86.0898)" fill="#1366F2"/>
<path d="M12.6074 148.637H7.17969V131.465H1.82031V128.949H17.9668V131.465H12.6074V148.637ZM32.4863 134.24L29.8887 138.547C29.7793 138.182 29.638 137.772 29.4648 137.316C29.2917 136.861 29.0775 136.437 28.8223 136.045C28.5671 135.644 28.2617 135.311 27.9062 135.047C27.5508 134.773 27.1406 134.637 26.6758 134.637C26.2474 134.637 25.8737 134.746 25.5547 134.965C25.2448 135.184 24.9805 135.471 24.7617 135.826C24.543 136.173 24.3607 136.569 24.2148 137.016C24.0781 137.453 23.9688 137.9 23.8867 138.355C23.8138 138.802 23.7637 139.235 23.7363 139.654C23.709 140.064 23.6953 140.42 23.6953 140.721V148.637H19.0605V132.846H20.8379L22.7109 136.523C22.9661 135.931 23.2578 135.389 23.5859 134.896C23.9141 134.395 24.2923 133.967 24.7207 133.611C25.1491 133.247 25.6322 132.964 26.1699 132.764C26.7168 132.563 27.332 132.463 28.0156 132.463C28.3711 132.463 28.7676 132.495 29.2051 132.559C29.6426 132.613 30.071 132.714 30.4902 132.859C30.9095 132.996 31.2969 133.178 31.6523 133.406C32.0078 133.634 32.2858 133.912 32.4863 134.24ZM33.3203 141.883C33.3203 141.163 33.3796 140.415 33.498 139.641C33.6257 138.866 33.8034 138.091 34.0312 137.316C34.2682 136.542 34.5508 135.776 34.8789 135.02C35.207 134.263 35.5762 133.538 35.9863 132.846H39.3633C39.1354 133.529 38.9303 134.245 38.748 134.992C38.5749 135.73 38.4245 136.473 38.2969 137.221C38.1784 137.959 38.0827 138.684 38.0098 139.395C37.946 140.105 37.9141 140.766 37.9141 141.377C37.9141 141.732 37.9277 142.115 37.9551 142.525C37.9915 142.926 38.0508 143.332 38.1328 143.742C38.2148 144.143 38.3288 144.531 38.4746 144.904C38.6296 145.278 38.8255 145.611 39.0625 145.902C39.2995 146.185 39.5866 146.413 39.9238 146.586C40.2702 146.75 40.6758 146.832 41.1406 146.832C41.5964 146.832 42.002 146.732 42.3574 146.531C42.722 146.322 43.041 146.053 43.3145 145.725C43.5879 145.387 43.8203 145.005 44.0117 144.576C44.2031 144.148 44.3581 143.71 44.4766 143.264C44.6042 142.808 44.6953 142.366 44.75 141.938C44.8138 141.5 44.8457 141.108 44.8457 140.762V132.846H49.4668V148.637H47.6895L45.5703 144.959C45.306 145.57 44.9824 146.126 44.5996 146.627C44.2259 147.119 43.7975 147.543 43.3145 147.898C42.8314 148.254 42.2936 148.527 41.7012 148.719C41.1178 148.91 40.4844 149.006 39.8008 149.006C38.707 149.006 37.7546 148.828 36.9434 148.473C36.1322 148.117 35.4577 147.625 34.9199 146.996C34.3822 146.367 33.9811 145.62 33.7168 144.754C33.4525 143.879 33.3203 142.922 33.3203 141.883ZM57.123 141.145C57.6882 141.272 58.2533 141.372 58.8184 141.445C59.3835 141.518 59.9531 141.555 60.5273 141.555C61.1289 141.555 61.6849 141.5 62.1953 141.391C62.7148 141.272 63.1615 141.081 63.5352 140.816C63.918 140.543 64.2188 140.183 64.4375 139.736C64.6562 139.29 64.7656 138.734 64.7656 138.068C64.7656 137.531 64.6927 137.038 64.5469 136.592C64.401 136.145 64.1823 135.762 63.8906 135.443C63.6081 135.124 63.2572 134.878 62.8379 134.705C62.4186 134.523 61.931 134.432 61.375 134.432C60.8555 134.432 60.3861 134.527 59.9668 134.719C59.5566 134.91 59.1921 135.17 58.873 135.498C58.5632 135.817 58.2943 136.191 58.0664 136.619C57.8477 137.048 57.6654 137.494 57.5195 137.959C57.3737 138.424 57.2689 138.893 57.2051 139.367C57.1413 139.841 57.1094 140.288 57.1094 140.707C57.1094 140.78 57.1094 140.853 57.1094 140.926C57.1094 140.999 57.1139 141.072 57.123 141.145ZM68.5117 138.027C68.5117 138.674 68.4069 139.253 68.1973 139.764C67.9876 140.265 67.7005 140.707 67.3359 141.09C66.9805 141.473 66.5658 141.796 66.0918 142.061C65.6178 142.325 65.112 142.544 64.5742 142.717C64.0365 142.881 63.4805 142.999 62.9062 143.072C62.3411 143.145 61.7897 143.182 61.252 143.182C60.5684 143.182 59.8939 143.136 59.2285 143.045C58.5632 142.945 57.9069 142.79 57.2598 142.58C57.36 143.182 57.5195 143.756 57.7383 144.303C57.957 144.84 58.2487 145.314 58.6133 145.725C58.9779 146.126 59.4245 146.445 59.9531 146.682C60.4909 146.919 61.1243 147.037 61.8535 147.037C62.3366 147.037 62.7969 146.964 63.2344 146.818C63.6719 146.673 64.0729 146.467 64.4375 146.203C64.8021 145.939 65.1211 145.624 65.3945 145.26C65.6771 144.895 65.9049 144.49 66.0781 144.043L68.0742 144.781C67.7734 145.501 67.3587 146.126 66.8301 146.654C66.3105 147.174 65.7181 147.607 65.0527 147.953C64.3965 148.29 63.6947 148.541 62.9473 148.705C62.209 148.869 61.4753 148.951 60.7461 148.951C59.543 148.951 58.431 148.751 57.4102 148.35C56.3893 147.939 55.5098 147.37 54.7715 146.641C54.0332 145.911 53.4544 145.041 53.0352 144.029C52.6159 143.018 52.4062 141.91 52.4062 140.707C52.4062 139.504 52.6159 138.396 53.0352 137.385C53.4544 136.373 54.0332 135.503 54.7715 134.773C55.5098 134.044 56.3893 133.479 57.4102 133.078C58.431 132.668 59.543 132.463 60.7461 132.463C61.3294 132.463 61.9264 132.504 62.5371 132.586C63.1478 132.668 63.7402 132.8 64.3145 132.982C64.8887 133.156 65.431 133.383 65.9414 133.666C66.4518 133.949 66.8939 134.299 67.2676 134.719C67.6504 135.129 67.9512 135.607 68.1699 136.154C68.3978 136.701 68.5117 137.326 68.5117 138.027Z" fill="#1366F2"/>
<path d="M75.6211 133.953L74.0898 148.637H70.7402L74.0898 128.949H79.0527L83.6602 143.975L88.3223 128.949H93.2852L96.0742 148.637H90.5508L88.9238 134.336L85.082 148.637H80.1191L75.6211 133.953ZM102.787 141.145C103.352 141.272 103.917 141.372 104.482 141.445C105.048 141.518 105.617 141.555 106.191 141.555C106.793 141.555 107.349 141.5 107.859 141.391C108.379 141.272 108.826 141.081 109.199 140.816C109.582 140.543 109.883 140.183 110.102 139.736C110.32 139.29 110.43 138.734 110.43 138.068C110.43 137.531 110.357 137.038 110.211 136.592C110.065 136.145 109.846 135.762 109.555 135.443C109.272 135.124 108.921 134.878 108.502 134.705C108.083 134.523 107.595 134.432 107.039 134.432C106.52 134.432 106.05 134.527 105.631 134.719C105.221 134.91 104.856 135.17 104.537 135.498C104.227 135.817 103.958 136.191 103.73 136.619C103.512 137.048 103.329 137.494 103.184 137.959C103.038 138.424 102.933 138.893 102.869 139.367C102.805 139.841 102.773 140.288 102.773 140.707C102.773 140.78 102.773 140.853 102.773 140.926C102.773 140.999 102.778 141.072 102.787 141.145ZM114.176 138.027C114.176 138.674 114.071 139.253 113.861 139.764C113.652 140.265 113.365 140.707 113 141.09C112.645 141.473 112.23 141.796 111.756 142.061C111.282 142.325 110.776 142.544 110.238 142.717C109.701 142.881 109.145 142.999 108.57 143.072C108.005 143.145 107.454 143.182 106.916 143.182C106.232 143.182 105.558 143.136 104.893 143.045C104.227 142.945 103.571 142.79 102.924 142.58C103.024 143.182 103.184 143.756 103.402 144.303C103.621 144.84 103.913 145.314 104.277 145.725C104.642 146.126 105.089 146.445 105.617 146.682C106.155 146.919 106.788 147.037 107.518 147.037C108.001 147.037 108.461 146.964 108.898 146.818C109.336 146.673 109.737 146.467 110.102 146.203C110.466 145.939 110.785 145.624 111.059 145.26C111.341 144.895 111.569 144.49 111.742 144.043L113.738 144.781C113.438 145.501 113.023 146.126 112.494 146.654C111.975 147.174 111.382 147.607 110.717 147.953C110.061 148.29 109.359 148.541 108.611 148.705C107.873 148.869 107.139 148.951 106.41 148.951C105.207 148.951 104.095 148.751 103.074 148.35C102.053 147.939 101.174 147.37 100.436 146.641C99.6973 145.911 99.1185 145.041 98.6992 144.029C98.2799 143.018 98.0703 141.91 98.0703 140.707C98.0703 139.504 98.2799 138.396 98.6992 137.385C99.1185 136.373 99.6973 135.503 100.436 134.773C101.174 134.044 102.053 133.479 103.074 133.078C104.095 132.668 105.207 132.463 106.41 132.463C106.993 132.463 107.59 132.504 108.201 132.586C108.812 132.668 109.404 132.8 109.979 132.982C110.553 133.156 111.095 133.383 111.605 133.666C112.116 133.949 112.558 134.299 112.932 134.719C113.314 135.129 113.615 135.607 113.834 136.154C114.062 136.701 114.176 137.326 114.176 138.027ZM123.008 148.637H118.373V134.678H115.502V132.846H118.373V127.035H123.008V132.846H127.793V134.678H123.008V148.637ZM133.029 141.145C133.594 141.272 134.16 141.372 134.725 141.445C135.29 141.518 135.859 141.555 136.434 141.555C137.035 141.555 137.591 141.5 138.102 141.391C138.621 141.272 139.068 141.081 139.441 140.816C139.824 140.543 140.125 140.183 140.344 139.736C140.562 139.29 140.672 138.734 140.672 138.068C140.672 137.531 140.599 137.038 140.453 136.592C140.307 136.145 140.089 135.762 139.797 135.443C139.514 135.124 139.163 134.878 138.744 134.705C138.325 134.523 137.837 134.432 137.281 134.432C136.762 134.432 136.292 134.527 135.873 134.719C135.463 134.91 135.098 135.17 134.779 135.498C134.469 135.817 134.201 136.191 133.973 136.619C133.754 137.048 133.572 137.494 133.426 137.959C133.28 138.424 133.175 138.893 133.111 139.367C133.048 139.841 133.016 140.288 133.016 140.707C133.016 140.78 133.016 140.853 133.016 140.926C133.016 140.999 133.02 141.072 133.029 141.145ZM144.418 138.027C144.418 138.674 144.313 139.253 144.104 139.764C143.894 140.265 143.607 140.707 143.242 141.09C142.887 141.473 142.472 141.796 141.998 142.061C141.524 142.325 141.018 142.544 140.48 142.717C139.943 142.881 139.387 142.999 138.812 143.072C138.247 143.145 137.696 143.182 137.158 143.182C136.475 143.182 135.8 143.136 135.135 143.045C134.469 142.945 133.813 142.79 133.166 142.58C133.266 143.182 133.426 143.756 133.645 144.303C133.863 144.84 134.155 145.314 134.52 145.725C134.884 146.126 135.331 146.445 135.859 146.682C136.397 146.919 137.031 147.037 137.76 147.037C138.243 147.037 138.703 146.964 139.141 146.818C139.578 146.673 139.979 146.467 140.344 146.203C140.708 145.939 141.027 145.624 141.301 145.26C141.583 144.895 141.811 144.49 141.984 144.043L143.98 144.781C143.68 145.501 143.265 146.126 142.736 146.654C142.217 147.174 141.624 147.607 140.959 147.953C140.303 148.29 139.601 148.541 138.854 148.705C138.115 148.869 137.382 148.951 136.652 148.951C135.449 148.951 134.337 148.751 133.316 148.35C132.296 147.939 131.416 147.37 130.678 146.641C129.939 145.911 129.361 145.041 128.941 144.029C128.522 143.018 128.312 141.91 128.312 140.707C128.312 139.504 128.522 138.396 128.941 137.385C129.361 136.373 129.939 135.503 130.678 134.773C131.416 134.044 132.296 133.479 133.316 133.078C134.337 132.668 135.449 132.463 136.652 132.463C137.236 132.463 137.833 132.504 138.443 132.586C139.054 132.668 139.646 132.8 140.221 132.982C140.795 133.156 141.337 133.383 141.848 133.666C142.358 133.949 142.8 134.299 143.174 134.719C143.557 135.129 143.857 135.607 144.076 136.154C144.304 136.701 144.418 137.326 144.418 138.027ZM160.729 134.24L158.131 138.547C158.021 138.182 157.88 137.772 157.707 137.316C157.534 136.861 157.32 136.437 157.064 136.045C156.809 135.644 156.504 135.311 156.148 135.047C155.793 134.773 155.383 134.637 154.918 134.637C154.49 134.637 154.116 134.746 153.797 134.965C153.487 135.184 153.223 135.471 153.004 135.826C152.785 136.173 152.603 136.569 152.457 137.016C152.32 137.453 152.211 137.9 152.129 138.355C152.056 138.802 152.006 139.235 151.979 139.654C151.951 140.064 151.938 140.42 151.938 140.721V148.637H147.303V132.846H149.08L150.953 136.523C151.208 135.931 151.5 135.389 151.828 134.896C152.156 134.395 152.535 133.967 152.963 133.611C153.391 133.247 153.874 132.964 154.412 132.764C154.959 132.563 155.574 132.463 156.258 132.463C156.613 132.463 157.01 132.495 157.447 132.559C157.885 132.613 158.313 132.714 158.732 132.859C159.152 132.996 159.539 133.178 159.895 133.406C160.25 133.634 160.528 133.912 160.729 134.24Z" fill="#0CBC8B"/>
</svg>
